<svg xmlns="http://www.w3.org/2000/svg" viewBox="-20 -20 240 240" width="100%" height="100%">
  <defs>
    <mask id="flask-cutout">
      <rect x="-20" y="-20" width="240" height="240" fill="white" />
      <circle cx="100" cy="120" r="50" fill="black" />
      <rect x="85" y="40" width="30" height="50" fill="black" />
      <rect x="75" y="30" width="50" height="15" rx="5" fill="black" />
    </mask>

    <clipPath id="flask-clip">
      <circle cx="100" cy="120" r="50" />
      <rect x="85" y="40" width="30" height="50" />
    </clipPath>
  </defs>

  <g mask="url(#flask-cutout)">
    <circle cx="100" cy="120" r="85" fill="black" />
    <path d="M 145 30 L 185 30 L 185 180 Q 185 195 170 195 L 145 195 Z" fill="black" />
  </g>

  <g clip-path="url(#flask-clip)">
    <rect x="50" y="130" width="100" height="50" fill="#6a2b91" />
    
    <rect x="55" y="120" width="4" height="15" fill="#6a2b91" rx="2" />
    <rect x="62" y="110" width="4" height="25" fill="#6a2b91" rx="2" />
    <rect x="69" y="100" width="4" height="35" fill="#6a2b91" rx="2" />
    <rect x="76" y="115" width="4" height="20" fill="#6a2b91" rx="2" />
    <rect x="83" y="90" width="4" height="45" fill="#6a2b91" rx="2" />
    <rect x="90" y="105" width="4" height="30" fill="#6a2b91" rx="2" />
    <rect x="97" y="80" width="4" height="55" fill="#6a2b91" rx="2" />
    <rect x="104" y="95" width="4" height="40" fill="#6a2b91" rx="2" />
    <rect x="111" y="85" width="4" height="50" fill="#6a2b91" rx="2" />
    <rect x="118" y="110" width="4" height="25" fill="#6a2b91" rx="2" />
    <rect x="125" y="100" width="4" height="35" fill="#6a2b91" rx="2" />
    <rect x="132" y="115" width="4" height="20" fill="#6a2b91" rx="2" />
    <rect x="139" y="125" width="4" height="10" fill="#6a2b91" rx="2" />
  </g>

  <circle cx="95" cy="15" r="8" fill="#6a2b91" />
  <circle cx="75" cy="5" r="5" fill="#6a2b91" />
  <circle cx="115" cy="0" r="6" fill="#6a2b91" />
  
  <circle cx="105" cy="65" r="4" fill="#6a2b91" />
  <circle cx="95" cy="55" r="2.5" fill="#6a2b91" />
</svg>
