<svg id="Layer_1" data-name="Layer 1" xmlns="http://www.w3.org/2000/svg" viewBox="0 -10 100 140">
  <style>
    @media (prefers-color-scheme: light) {
      .theme-adaptive { fill: #000; stroke: #000; }
    }
    @media (prefers-color-scheme: dark) {
      .theme-adaptive { fill: #fff; stroke: #fff; }
    }
    .accent { fill: #662d91; }
  </style>
  
  <path class="theme-adaptive" style="stroke-miterlimit:10" d="M1363.12,2014.16l-.34,12.83a18.21,18.21,0,0,0-5.33-6.75,35,35,0,0,0-9.82-5.74c-.39-.16-.78-.27-1.17-.4v14.8a21.53,21.53,0,0,1,3.66,1.75,22.42,22.42,0,0,1,8.17,8.83,27,27,0,0,1,3,12.83v1.16q0,10.67-6.5,17.24a21.58,21.58,0,0,1-16,6.58q-10.83,0-16.58-6.91t-5.74-18.07q0-11,5.83-17.91a18.62,18.62,0,0,1,9-5.88v-16.19a37,37,0,0,0-16.15,4.83,33.47,33.47,0,0,0-13.08,14,45.59,45.59,0,0,0-4.58,21q0,12.17,5.25,21.24a36.78,36.78,0,0,0,14,14,38.31,38.31,0,0,0,19.07,4.91,31.53,31.53,0,0,0,16.82-4.58q7.5-4.57,10.33-10.58l.33,13.5h17v-76.46Z" transform="translate(-1296.99 -1962.73)"/>
  
  <circle class="accent" cx="41.89" cy="37.78" r="7.58"/>
  <circle class="accent" cx="23.68" cy="21.57" r="5.29"/>
  <circle class="accent" cx="41.89" cy="5.46" r="5.46"/>
  
  <path class="accent" d="M1338.88,2070.79a19.14,19.14,0,0,0,17.9-13.07h.16c-19-21.87-5.44,0-36.11,0h.15A19.15,19.15,0,0,0,1338.88,2070.79Z" transform="translate(-1296.99 -1962.73)"/>
</svg>